<?xml version="1.0" encoding="UTF-8" standalone="no"?>
<!-- Uploaded to: SVG Repo, www.svgrepo.com, Generator: SVG Repo Mixer Tools -->

<svg
   fill="#000000"
   height="80"
   width="80"
   version="1.1"
   id="Layer_1"
   viewBox="0 0 51.2 51.2"
   xml:space="preserve"
   sodipodi:docname="equipe.svg"
   inkscape:version="1.1.2 (b8e25be8, 2022-02-05)"
   xmlns:inkscape="http://www.inkscape.org/namespaces/inkscape"
   xmlns:sodipodi="http://sodipodi.sourceforge.net/DTD/sodipodi-0.dtd"
   xmlns="http://www.w3.org/2000/svg"
   xmlns:svg="http://www.w3.org/2000/svg"><defs
   id="defs22" /><sodipodi:namedview
   id="namedview20"
   pagecolor="#ffffff"
   bordercolor="#666666"
   borderopacity="1.0"
   inkscape:pageshadow="2"
   inkscape:pageopacity="0.0"
   inkscape:pagecheckerboard="0"
   showgrid="false"
   fit-margin-top="0"
   fit-margin-left="0"
   fit-margin-right="0"
   fit-margin-bottom="0"
   inkscape:zoom="1.09125"
   inkscape:cx="352.34822"
   inkscape:cy="64.146621"
   inkscape:window-width="2240"
   inkscape:window-height="1118"
   inkscape:window-x="0"
   inkscape:window-y="25"
   inkscape:window-maximized="1"
   inkscape:current-layer="Layer_1" />
<g
   id="g17"
   transform="matrix(0.1,0,0,0.13333333,0,-8.5333331)">
	<g
   id="g15">
		<g
   id="g13">
			<path
   d="m 314.752,348.629 -58.773,-14.677 -4.352,-17.429 c 15.573,-15.915 26.325,-37.248 29.909,-59.264 9.152,-3.285 16.085,-11.499 17.365,-21.632 l 3.947,-31.531 c 0.939,-7.467 -1.365,-14.976 -6.293,-20.629 -2.432,-2.795 -5.397,-5.013 -8.683,-6.549 l 1.323,-26.667 5.184,-5.205 c 9.579,-10.176 17.536,-27.563 1.152,-52.565 C 283.157,73.579 262.293,64 233.472,64 c -11.115,0 -36.608,0 -60.629,15.829 -69.248,1.728 -78.229,35.968 -78.229,65.792 0,6.784 1.493,20.992 2.624,30.784 -3.669,1.536 -6.976,3.861 -9.664,6.912 -5.035,5.675 -7.36,13.248 -6.421,20.779 l 3.947,31.531 c 1.344,10.837 9.173,19.477 19.264,22.229 3.563,21.099 13.76,41.685 28.373,57.237 l -4.715,18.859 -58.773,14.677 C 28.459,358.805 0,395.285 0,437.333 c 0,2.837 1.109,5.568 3.115,7.552 2.005,1.984 4.736,3.115 7.552,3.115 l 362.667,-0.043 c 5.888,0 10.667,-4.779 10.667,-10.667 C 384,395.285 355.541,358.805 314.752,348.629 Z M 22.144,426.624 c 4.203,-27.563 24.512,-50.368 52.288,-57.301 l 64.981,-16.235 c 3.819,-0.96 6.827,-3.947 7.765,-7.765 l 7.723,-30.933 c 0.96,-3.755 -0.235,-7.723 -3.051,-10.368 -15.424,-14.464 -25.643,-35.691 -27.328,-56.747 -0.448,-5.547 -5.077,-9.813 -10.645,-9.813 h -2.56 c -2.56,0 -4.736,-1.92 -5.056,-4.459 l -3.947,-31.531 c -0.256,-1.984 0.661,-3.371 1.237,-4.011 0.576,-0.64 1.835,-1.728 5.461,-1.728 3.072,0 5.973,-1.301 8,-3.605 2.027,-2.283 2.965,-5.355 2.581,-8.384 -1.003,-8.021 -3.648,-30.528 -3.648,-38.08 0,-19.584 0,-43.925 60.395,-44.523 2.176,-0.021 4.331,-0.704 6.101,-1.984 16.981,-12.139 35.328,-13.781 51.051,-13.781 21.163,0 36.032,6.336 44.203,18.837 9.344,14.272 5.824,21.291 1.365,26.027 l -7.872,7.893 c -1.877,1.877 -2.987,4.373 -3.115,7.019 l -1.92,39.467 c -0.128,2.901 0.917,5.717 2.901,7.829 1.963,2.112 4.736,3.328 7.637,3.349 2.005,0.021 3.243,1.109 3.797,1.749 0.554,0.64 1.451,1.984 1.216,3.947 l -3.947,31.531 c -0.32,2.539 -2.496,4.459 -5.824,4.459 -5.568,0 -10.197,4.267 -10.645,9.813 -1.728,21.717 -12.416,43.349 -28.629,57.877 -2.944,2.624 -4.181,6.677 -3.221,10.517 l 7.403,29.632 c 0.96,3.819 3.947,6.827 7.765,7.765 l 64.981,16.235 c 27.733,6.933 48.043,29.76 52.267,57.344 z"
   id="path9" />
			<path
   d="M 442.773,348.608 384,333.931 l -2.389,-9.429 c 40.235,-7.211 61.12,-19.349 62.059,-19.904 3.008,-1.771 4.885,-4.971 5.141,-8.448 0.256,-3.477 -1.301,-6.933 -4.011,-9.131 -0.277,-0.213 -27.413,-23.083 -27.413,-101.952 0,-69.867 -16.853,-105.28 -50.091,-105.28 h -3.563 C 352.298,69.014 342.954,64.384 322.282,64.086 h -0.149 c -3.968,0 -7.531,2.304 -9.365,5.824 -1.856,3.563 -1.493,8 0.853,11.264 2.389,3.371 6.357,4.885 10.112,4.267 15.253,0.427 19.093,3.52 28.117,12.544 2.005,1.984 4.715,3.115 7.552,3.115 h 7.893 c 18.283,0 28.757,30.613 28.757,83.947 0,59.52 14.208,91.264 24.811,106.645 -10.795,4.267 -28.864,10.027 -53.888,13.547 -2.987,0.405 -5.675,2.091 -7.36,4.587 -1.685,2.517 -2.24,5.611 -1.493,8.555 l 6.72,26.944 c 0.96,3.819 3.947,6.827 7.765,7.765 l 64.981,16.235 c 27.733,6.933 48.043,29.76 52.267,57.344 H 416 V 448 l 85.333,-0.043 c 5.888,0 10.667,-4.779 10.667,-10.667 0,-42.005 -28.459,-78.485 -69.227,-88.682 z"
   id="path11" />
		</g>
	</g>
</g>
</svg>
