<?xml version="1.0" encoding="UTF-8" standalone="no"?>
<!-- Uploaded to: SVG Repo, www.svgrepo.com, Generator: SVG Repo Mixer Tools -->

<svg
   fill="#000000"
   version="1.1"
   id="Capa_1"
   width="80"
   height="80"
   viewBox="0 0 3.1979 3.1979"
   xml:space="preserve"
   sodipodi:docname="cursos.svg"
   inkscape:version="1.1.2 (b8e25be8, 2022-02-05)"
   xmlns:inkscape="http://www.inkscape.org/namespaces/inkscape"
   xmlns:sodipodi="http://sodipodi.sourceforge.net/DTD/sodipodi-0.dtd"
   xmlns="http://www.w3.org/2000/svg"
   xmlns:svg="http://www.w3.org/2000/svg"><defs
   id="defs961" /><sodipodi:namedview
   id="namedview959"
   pagecolor="#ffffff"
   bordercolor="#666666"
   borderopacity="1.0"
   inkscape:pageshadow="2"
   inkscape:pageopacity="0.0"
   inkscape:pagecheckerboard="0"
   showgrid="false"
   fit-margin-top="0"
   fit-margin-left="0"
   fit-margin-right="0"
   fit-margin-bottom="0"
   inkscape:zoom="0.295"
   inkscape:cx="379.66102"
   inkscape:cy="400"
   inkscape:window-width="1245"
   inkscape:window-height="646"
   inkscape:window-x="929"
   inkscape:window-y="243"
   inkscape:window-maximized="0"
   inkscape:current-layer="Capa_1" />
<g
   id="g956"
   transform="matrix(0.10552036,0,0,0.1,-0.0881095,0)">
	<circle
   cx="13.479"
   cy="4.5009999"
   r="4.5009999"
   id="circle950" />
	<path
   d="m 27.248,20.753 c -1.396,-0.655 -2.814,-0.925 -4.292,-1.303 -0.536,-0.138 1.149,-0.476 1.36,-0.521 0.629,-0.13 1.252,-0.271 1.862,-0.475 0.563,-0.188 1.234,-0.618 1.044,-1.312 -0.097,-0.348 -0.393,-0.562 -0.762,-0.711 0.122,-0.113 0.219,-0.25 0.262,-0.44 0.063,-0.29 -0.044,-0.541 -0.287,-0.706 -0.504,-0.34 -1.168,-0.404 -1.838,-0.44 0.088,-0.077 0.182,-0.149 0.258,-0.249 0.141,-0.186 0.084,-0.442 0,-0.632 -0.189,-0.419 -0.559,-0.538 -0.984,-0.635 -0.372,-0.084 -0.786,-0.087 -1.16,-0.141 0.186,0.026 0.607,-0.155 0.831,-0.339 1.394,-1.14 -0.718,-1.889 -1.61,-1.995 -0.799,-0.096 -0.789,1.155 0,1.25 0.875,0.104 0.385,-0.038 -0.162,0.239 -0.17,0.086 -0.356,0.26 -0.453,0.423 -0.229,0.391 -0.127,0.751 0.09,1.101 0.271,0.437 0.904,0.518 1.359,0.582 0.029,0.004 0.047,0.006 0.073,0.01 -0.142,0.07 -0.28,0.146 -0.411,0.246 -0.42,0.324 -0.408,0.965 0.149,1.143 0.388,0.123 0.87,0.142 1.36,0.158 -0.002,0.001 -0.008,0.003 -0.01,0.004 -0.529,0.256 -0.312,0.975 0.149,1.143 0.362,0.132 0.739,0.217 1.116,0.298 -0.279,0.073 -0.562,0.137 -0.844,0.198 -0.861,0.189 -2.222,0.336 -2.771,1.119 -0.493,0.701 -0.206,1.358 0.537,1.707 1.416,0.664 3.053,0.676 4.5,1.357 0.727,0.342 1.363,-0.734 0.634,-1.079 z"
   id="path952" />
	<path
   d="M 29.904,11.48 V 7.814 H 26.947 V 6.896 h -1.893 c 0.016,-0.069 0.043,-0.134 0.043,-0.208 0,-0.574 -0.484,-1.041 -1.082,-1.041 -0.599,0 -1.084,0.467 -1.084,1.041 0,0.074 0.028,0.139 0.043,0.208 h -1.82 v 0.918 h -3.416 v 1.87 L 17.65,9.68 H 15.116 L 13.4,11.67 11.74,9.68 8.097,10.172 5.358,16.397 3.558,14.505 0.835,13.229 1.797,16.117 6.192,20.745 6.19,20.748 7.6,22.227 9.34,20.569 7.93,19.09 7.928,19.093 6.686,17.789 l 2.559,-5.371 0.244,7.71 h 0.236 v 1.026 0.755 8.014 H 9.414 l -1.807,0.392 v 1.664 h 1.539 l 1.796,-0.293 0.016,0.293 h 1.988 v -1.854 -0.2 -8.015 h 1.133 v 8.014 0.2 1.854 h 1.99 l 0.015,-0.293 1.795,0.293 h 1.539 v -1.664 l -1.807,-0.392 h -0.31 v -8.014 -0.755 -1.026 h 0.286 l 0.152,-2.969 v 6.987 h 12.166 v -9.167 h 1.236 V 11.48 Z M 2.838,15.445 2.173,15.31 2.146,16.174 2.002,16.024 1.454,14.376 l 0.431,-0.41 1.527,0.711 0.199,0.209 -0.91,-0.076 z m 5.346,4.562 0.522,0.548 -1.092,1.039 -0.521,-0.547 z M 24.025,6.298 c 0.242,0 0.438,0.195 0.438,0.438 0,0.243 -0.196,0.438 -0.438,0.438 -0.241,0 -0.438,-0.195 -0.438,-0.438 0.001,-0.243 0.198,-0.438 0.438,-0.438 z m 4.879,5.182 h -0.791 v 3.499 h 0.791 v 8.167 H 18.738 V 8.814 h 2.418 v 0.708 h 5.791 V 8.814 h 1.959 v 2.666 z"
   id="path954" />
</g>
</svg>
