<?xml version="1.0" encoding="UTF-8" standalone="no"?>
<!-- Uploaded to: SVG Repo, www.svgrepo.com, Generator: SVG Repo Mixer Tools -->

<svg
   width="80"
   height="80"
   viewBox="0 0 2.4 2.4"
   fill="none"
   version="1.1"
   id="svg11"
   sodipodi:docname="localizacao.svg"
   inkscape:version="1.1.2 (b8e25be8, 2022-02-05)"
   xmlns:inkscape="http://www.inkscape.org/namespaces/inkscape"
   xmlns:sodipodi="http://sodipodi.sourceforge.net/DTD/sodipodi-0.dtd"
   xmlns="http://www.w3.org/2000/svg"
   xmlns:svg="http://www.w3.org/2000/svg">
  <defs
     id="defs15" />
  <sodipodi:namedview
     id="namedview13"
     pagecolor="#ffffff"
     bordercolor="#666666"
     borderopacity="1.0"
     inkscape:pageshadow="2"
     inkscape:pageopacity="0.0"
     inkscape:pagecheckerboard="0"
     showgrid="false"
     fit-margin-top="0"
     fit-margin-left="0"
     fit-margin-right="0"
     fit-margin-bottom="0"
     inkscape:zoom="1.09125"
     inkscape:cx="323.94044"
     inkscape:cy="414.20389"
     inkscape:window-width="2240"
     inkscape:window-height="1118"
     inkscape:window-x="0"
     inkscape:window-y="25"
     inkscape:window-maximized="1"
     inkscape:current-layer="svg11" />
  <path
     d="M 2.04,1.2 C 2.04,1.66392 1.66392,2.04 1.2,2.04 M 2.04,1.2 C 2.04,0.7360812 1.66392,0.36 1.2,0.36 M 2.04,1.2 H 2.28 M 1.2,2.04 C 0.7360812,2.04 0.36,1.66392 0.36,1.2 M 1.2,2.04 V 2.28 M 0.36,1.2 C 0.36,0.7360812 0.7360812,0.36 1.2,0.36 M 0.36,1.2 H 0.12 M 1.2,0.36 V 0.12 M 1.56,1.2 C 1.56,1.398828 1.398828,1.56 1.2,1.56 1.001172,1.56 0.84,1.398828 0.84,1.2 0.84,1.001172 1.001172,0.84 1.2,0.84 c 0.198828,0 0.36,0.161172 0.36,0.36 z"
     stroke="#000000"
     stroke-width="0.24"
     stroke-linecap="round"
     stroke-linejoin="round"
     id="path9" />
</svg>
